<?xml version="1.0" standalone="no"?>
<!DOCTYPE svg PUBLIC "-//W3C//DTD SVG 20010904//EN"
 "http://www.w3.org/TR/2001/REC-SVG-20010904/DTD/svg10.dtd">
<svg version="1.0" xmlns="http://www.w3.org/2000/svg"
 width="1672.000000pt" height="1672.000000pt" viewBox="0 0 1672.000000 1672.000000"
 preserveAspectRatio="xMidYMid meet">
<metadata>
Created by potrace 1.11, written by Peter Selinger 2001-2013
</metadata>
<g transform="translate(0.000000,1672.000000) scale(0.100000,-0.100000)"
fill="#000000" stroke="none">
<path d="M7880 16709 c-1878 -110 -3656 -845 -5073 -2097 -182 -161 -538 -517
-699 -699 -679 -769 -1209 -1645 -1568 -2593 -500 -1323 -657 -2757 -455
-4157 234 -1617 932 -3122 2023 -4356 161 -182 517 -538 699 -699 920 -813
1982 -1404 3156 -1757 239 -73 579 -156 752 -186 l40 -7 -60 41 c-33 22 -85
58 -115 81 -54 40 -82 59 -137 92 -41 25 -117 84 -301 231 -98 78 -242 227
-242 251 0 12 -20 60 -41 100 -12 20 -27 68 -65 196 -13 47 -28 94 -33 105 -5
11 -15 43 -24 70 -17 54 -55 168 -67 200 -13 35 -30 147 -32 218 -2 38 -6 71
-10 73 -5 3 -8 16 -8 30 0 14 -4 22 -10 19 -5 -3 -10 1 -10 10 0 9 5 13 10 10
13 -8 13 1 -1 26 -8 16 -6 23 12 38 22 17 22 21 10 61 -21 72 -2 64 51 -22 10
-15 14 -28 8 -28 -8 0 -3 -69 6 -79 2 -2 16 -4 31 -5 30 -1 52 -34 58 -84 1
-14 8 -28 15 -30 7 -3 20 -12 30 -21 31 -29 98 -61 129 -61 17 0 31 -4 31 -8
0 -5 12 -15 27 -23 38 -19 51 -23 33 -10 -8 6 -10 11 -5 11 13 -1 45 -25 45
-35 0 -4 -8 -14 -17 -22 -17 -13 -16 -14 7 -9 37 8 95 -50 104 -102 6 -38 37
-71 71 -76 21 -3 96 -90 102 -118 5 -26 22 -34 56 -29 4 0 7 -4 7 -9 0 -6 6
-10 14 -10 8 0 23 -12 33 -26 17 -23 23 -25 41 -15 17 9 23 8 36 -11 9 -12 16
-37 16 -55 0 -27 4 -33 21 -33 11 0 18 4 14 9 -3 5 -1 12 5 16 11 7 -7 45 -28
58 -17 11 -5 28 14 20 10 -4 17 2 21 16 3 14 13 21 28 21 14 0 25 7 28 20 8
30 25 24 40 -12 8 -18 22 -40 31 -48 16 -12 19 -12 27 2 5 10 17 14 29 11 25
-7 37 21 19 43 -25 30 38 4 76 -32 20 -19 42 -34 49 -34 20 0 43 -32 48 -65 3
-16 7 -37 9 -45 2 -8 -1 -14 -8 -13 -17 3 -36 -25 -29 -43 4 -9 9 -14 12 -11
8 8 34 -18 34 -33 0 -6 5 -20 10 -31 9 -15 15 -17 30 -9 21 11 28 40 10 40 -5
0 -10 5 -10 12 0 6 3 9 6 5 3 -3 17 -2 31 4 17 6 33 5 56 -6 37 -17 70 -37 77
-47 3 -4 23 -3 45 3 31 9 41 8 50 -3 9 -12 49 -38 58 -38 2 0 2 13 -1 29 -2
18 -11 31 -23 34 -10 3 -19 10 -19 16 0 6 6 8 13 5 7 -2 40 -6 72 -7 49 -2 73
-10 130 -42 81 -46 127 -52 223 -29 35 9 66 13 69 10 3 -3 7 -17 8 -31 3 -19
-1 -25 -16 -25 -10 0 -19 5 -19 10 0 6 -8 10 -17 9 -11 0 -13 -3 -5 -6 6 -2
12 -16 12 -29 0 -14 4 -23 9 -19 5 3 11 -2 13 -11 3 -14 7 -13 30 5 41 33 77
27 144 -23 32 -25 72 -48 87 -51 15 -4 27 -11 27 -17 0 -5 10 -8 22 -6 15 2
22 -3 24 -17 12 -76 16 -83 46 -89 42 -8 50 -8 43 4 -4 6 7 10 25 10 17 0 41
5 52 11 17 9 24 8 37 -9 9 -11 25 -22 36 -25 19 -4 19 -5 -2 -6 -19 -1 -20 -4
-10 -25 15 -32 57 -45 152 -47 83 -2 134 -12 145 -28 11 -19 87 9 99 35 15 34
15 34 -18 34 -19 0 -39 10 -57 29 -22 24 -36 30 -68 29 -22 0 -42 5 -44 11 -2
6 -11 18 -19 26 -13 14 -12 18 9 36 20 17 32 19 93 14 93 -9 194 -21 283 -36
56 -10 80 -10 105 -1 21 8 43 8 62 3 17 -5 24 -10 16 -10 -8 -1 -11 -4 -8 -8
4 -3 -3 -11 -16 -18 -12 -6 -31 -16 -42 -22 -11 -6 -31 -16 -45 -22 -14 -7
-30 -22 -35 -33 -14 -30 -124 -89 -152 -82 -19 5 -23 2 -23 -16 0 -17 4 -21
17 -16 9 4 35 11 58 16 22 5 67 22 100 37 33 15 66 26 74 24 16 -3 64 15 109
42 40 23 30 43 -13 27 -18 -7 -32 -7 -38 -1 -12 12 58 45 79 37 9 -4 23 -1 31
5 7 7 16 9 19 6 3 -3 47 15 97 41 50 25 97 45 104 45 12 0 133 121 271 270 60
65 78 107 46 107 -8 0 -12 5 -9 11 4 5 12 8 18 6 7 -2 34 11 62 30 54 36 75
41 75 18 0 -8 -4 -15 -9 -15 -5 0 -14 -14 -21 -30 -7 -17 -15 -28 -18 -25 -3
2 -11 -7 -19 -22 -31 -60 11 -36 112 64 77 76 148 128 188 138 23 6 38 29 41
65 1 8 7 31 13 50 16 50 13 70 -11 71 -15 0 -16 2 -6 6 8 3 26 16 40 29 16 14
44 26 70 30 41 5 47 4 66 -23 11 -15 26 -44 34 -63 7 -19 19 -42 26 -50 15
-18 44 -101 55 -155 4 -22 15 -69 24 -105 9 -36 19 -76 21 -90 3 -14 8 -32 11
-40 13 -39 20 -233 13 -331 -4 -45 -2 -81 4 -91 8 -13 8 -23 -1 -36 -6 -10 -7
-25 -3 -33 8 -14 23 -137 23 -197 0 -17 1 -32 2 -32 20 0 344 97 500 150 1749
595 3271 1777 4287 3330 1290 1970 1689 4385 1103 6665 -370 1437 -1123 2761
-2170 3811 -415 417 -799 734 -1270 1050 -1252 838 -2687 1317 -4209 1404
-206 12 -715 11 -926 -1z m-2283 -1081 c-3 -7 -5 -2 -5 12 0 14 2 19 5 13 2
-7 2 -19 0 -25z m56 -138 c3 -11 1 -18 -4 -14 -5 3 -9 12 -9 20 0 20 7 17 13
-6z m-583 -446 c0 -2 -7 -4 -15 -4 -8 0 -15 4 -15 10 0 5 7 7 15 4 8 -4 15 -8
15 -10z m2185 -162 c-11 -73 -17 -39 -9 45 7 60 10 69 12 38 2 -22 1 -60 -3
-83z m125 -2299 c0 -10 -5 -25 -10 -33 -7 -11 -10 -7 -10 18 0 17 5 32 10 32
6 0 10 -8 10 -17z m1090 -53 c0 -5 -5 -10 -11 -10 -5 0 -7 5 -4 10 3 6 8 10
11 10 2 0 4 -4 4 -10z m3058 -45 c-5 -28 -17 -57 -25 -65 -14 -13 -14 -13 -5
5 5 11 13 38 17 60 4 22 9 44 12 48 11 18 11 0 1 -48z m-3154 -12 c43 -7 48
-10 35 -23 -17 -18 -23 -67 -14 -118 5 -29 13 -40 33 -48 20 -8 31 -22 40 -53
8 -27 30 -59 62 -90 28 -27 50 -56 50 -65 0 -21 17 -56 39 -77 35 -36 51 -60
51 -78 0 -42 13 -81 28 -81 8 0 21 -8 28 -17 11 -17 13 -16 23 10 6 15 17 27
25 27 7 0 16 10 19 23 5 25 1 103 -8 125 -7 19 21 62 40 62 9 0 14 8 12 21 -1
12 3 24 10 26 8 3 10 -14 9 -57 -2 -40 1 -59 8 -57 22 7 46 111 51 220 1 26 3
56 4 67 1 24 36 27 65 5 10 -8 23 -12 27 -9 13 8 11 -20 -2 -33 -14 -14 -13
-113 0 -126 6 -6 14 14 21 49 13 61 26 88 40 79 5 -3 6 -20 3 -39 -3 -22 0
-42 11 -58 8 -13 15 -37 15 -53 -1 -17 4 -55 11 -85 7 -30 12 -69 13 -87 0
-18 6 -35 14 -37 7 -3 13 -13 13 -22 0 -13 3 -14 15 -4 8 6 20 39 26 72 7 33
17 65 23 71 20 21 37 69 31 87 -3 10 -2 21 4 24 13 8 23 -39 15 -71 -8 -36 7
-22 35 32 24 46 27 65 7 65 -8 0 -16 7 -20 15 -3 8 -2 15 2 15 4 0 9 12 10 27
3 33 42 79 42 50 0 -23 17 -22 30 2 7 14 19 19 45 18 20 -1 35 -7 35 -14 0 -7
6 -10 14 -7 15 6 19 51 5 60 -20 12 -8 26 19 20 23 -5 24 -5 8 5 -17 10 -16
12 13 27 31 14 33 14 61 -14 16 -16 30 -36 30 -44 1 -47 59 -170 89 -187 17
-11 22 -10 31 7 16 29 30 24 30 -10 0 -16 5 -30 10 -30 6 0 10 -16 10 -35 0
-19 4 -35 8 -35 16 0 43 78 36 104 -4 16 -2 26 5 26 6 0 11 7 11 15 0 8 6 15
14 15 9 0 12 -7 9 -20 -5 -19 -4 -19 27 -4 31 16 32 16 61 -12 16 -15 29 -33
29 -39 0 -6 11 -21 24 -32 21 -19 26 -19 62 -7 48 17 44 17 44 -1 0 -13 28
-35 45 -35 4 0 4 21 0 48 -5 38 -4 45 6 35 7 -7 23 -13 35 -13 22 0 67 -49 62
-67 -3 -9 31 -64 47 -75 18 -13 53 -8 59 8 4 11 12 14 24 9 32 -13 73 -16 85
-7 14 11 79 4 72 -8 -3 -4 18 -17 45 -28 41 -17 51 -26 56 -51 4 -17 11 -28
16 -25 5 3 6 -5 3 -18 -4 -16 -1 -29 9 -37 9 -8 16 -19 16 -26 0 -7 6 -18 14
-24 11 -10 17 -8 25 6 9 16 10 16 11 -6 0 -54 12 -8 13 55 2 71 13 88 35 53 9
-15 10 -24 2 -33 -15 -19 3 -49 72 -121 61 -64 64 -67 119 -117 19 -18 45 -46
57 -62 17 -22 22 -24 22 -11 0 14 3 15 15 5 8 -6 19 -9 25 -5 6 4 10 -5 10
-22 0 -28 29 -82 30 -55 0 18 17 15 24 -5 12 -38 45 -83 89 -125 26 -24 47
-46 47 -50 0 -9 78 -140 87 -147 5 -3 13 -19 19 -36 6 -16 16 -29 23 -27 34 8
73 -118 65 -207 -5 -53 2 -81 22 -81 8 0 14 3 14 8 0 4 12 12 26 19 33 15 41
-4 24 -57 -11 -35 -11 -41 9 -69 28 -39 54 -54 69 -39 21 21 47 -51 48 -132 1
-41 6 -104 12 -140 9 -53 9 -69 -3 -87 -10 -15 -14 -50 -14 -115 0 -51 -4
-118 -9 -148 -6 -30 -7 -62 -2 -70 4 -8 4 -47 0 -86 -7 -74 -6 -145 4 -229 3
-27 13 -138 21 -245 9 -107 23 -242 31 -300 8 -58 19 -144 24 -190 13 -120 26
-194 39 -218 6 -11 11 -31 11 -44 0 -13 9 -37 19 -54 25 -40 53 -149 87 -334
3 -19 10 -53 16 -75 19 -84 61 -526 54 -585 -3 -25 -8 -108 -11 -185 -3 -77
-8 -165 -10 -195 -17 -228 -27 -446 -29 -634 -1 -199 -7 -322 -36 -721 -14
-190 -34 -308 -64 -370 -15 -30 -25 -59 -22 -63 9 -15 -15 -195 -30 -224 -8
-15 -14 -36 -14 -46 0 -11 -7 -22 -15 -26 -8 -3 -15 -12 -15 -20 0 -9 -9 -20
-20 -26 -11 -6 -20 -17 -20 -25 0 -8 -7 -15 -15 -15 -14 0 -32 -43 -27 -67 2
-8 -3 -10 -13 -7 -13 5 -15 2 -10 -18 4 -16 -1 -37 -15 -61 -23 -39 -31 -43
-60 -27 -29 16 -53 2 -47 -28 3 -14 0 -37 -5 -51 -6 -15 -12 -46 -15 -69 -4
-49 -39 -131 -63 -149 -31 -25 -133 -72 -143 -66 -6 3 -8 -7 -5 -26 3 -18 1
-34 -4 -37 -4 -3 -8 -16 -8 -30 0 -13 -6 -24 -13 -24 -7 0 -23 -11 -35 -25
-29 -33 -60 -33 -68 1 -5 19 0 32 17 50 22 23 22 26 7 35 -9 5 -23 15 -30 22
-8 6 -23 17 -33 23 -17 9 -20 22 -20 76 -1 48 -6 70 -18 82 -16 16 -22 32 -29
79 -3 18 -47 40 -106 54 -12 3 -37 19 -54 35 -19 17 -59 38 -96 50 -49 15 -68
26 -80 48 -9 16 -27 35 -39 41 -13 7 -23 16 -23 21 0 4 -14 8 -31 8 -22 0 -44
12 -76 39 -24 22 -50 38 -58 35 -7 -3 -31 6 -54 20 -52 33 -69 33 -67 1 1 -20
6 -24 26 -22 20 2 25 -3 26 -22 1 -14 -8 -32 -20 -43 -23 -19 -81 -24 -91 -8
-3 5 -19 7 -35 3 -25 -4 -31 -1 -39 18 -9 25 -62 69 -81 69 -7 0 -9 -8 -5 -19
7 -24 -40 -82 -60 -74 -8 3 -15 11 -15 19 0 18 -5 18 -34 -2 -31 -20 -39 -7
-31 49 l6 42 -67 3 c-40 2 -75 8 -84 17 -17 15 -68 31 -87 27 -15 -3 -17 24
-3 33 6 4 8 11 5 16 -4 5 4 9 16 9 30 0 18 10 -18 16 -126 19 -158 21 -165 10
-5 -8 -13 -8 -28 2 -11 6 -33 12 -50 12 -16 0 -30 4 -30 9 0 5 -13 3 -30 -5
-16 -9 -30 -20 -30 -25 0 -5 -12 -9 -26 -9 -37 0 -77 -32 -134 -108 -53 -70
-59 -94 -35 -130 15 -21 14 -22 -27 -41 -24 -11 -64 -28 -90 -37 -27 -9 -48
-23 -48 -30 0 -8 5 -14 10 -14 6 0 10 -9 10 -19 0 -11 6 -22 13 -24 9 -4 8 -8
-3 -16 -15 -11 -52 -9 -97 5 -14 4 -23 2 -23 -5 0 -6 -7 -11 -15 -11 -24 0
-92 -37 -107 -58 -7 -10 -26 -27 -41 -37 -15 -10 -51 -51 -79 -91 -28 -41 -54
-74 -58 -74 -5 0 -13 -14 -19 -31 -9 -25 -14 -29 -25 -20 -24 20 -27 91 -5
122 25 35 25 52 -1 44 -14 -4 -20 -2 -20 8 0 8 -7 17 -15 21 -8 3 -15 10 -15
16 0 16 -22 36 -47 44 -14 4 -22 18 -26 41 -3 20 -15 48 -26 63 -11 16 -18 40
-17 54 5 43 -28 82 -129 153 -15 11 -36 28 -47 37 -10 10 -22 18 -27 18 -4 0
-22 13 -38 29 -17 16 -53 39 -79 51 -68 31 -219 70 -272 70 -76 0 -292 35
-337 55 -56 24 -62 24 -86 -1 -13 -14 -29 -22 -36 -20 -7 3 -22 -8 -33 -24
l-21 -30 26 -10 c35 -13 28 -32 -16 -43 -19 -5 -40 -14 -47 -21 -11 -11 -9
-16 12 -30 19 -12 26 -13 26 -4 0 7 10 3 22 -10 19 -19 21 -25 11 -42 -8 -12
-9 -21 -3 -25 15 -9 12 -25 -4 -25 -10 0 -12 -7 -9 -22 5 -23 5 -23 -10 -3
-17 21 -23 10 -8 -14 8 -12 14 -13 35 -3 l26 12 -20 -40 c-11 -22 -24 -40 -28
-41 -14 -1 -97 -1 -109 0 -7 1 -13 9 -13 19 -1 16 -1 16 -14 0 -14 -20 -26
-14 -26 12 0 11 20 28 55 45 57 29 95 59 95 75 0 15 -12 12 -50 -12 -41 -26
-103 -59 -104 -55 -1 1 -7 13 -15 27 -10 20 -11 22 0 12 17 -15 25 -15 27 1 7
74 11 99 20 110 5 6 13 22 17 35 4 13 27 46 51 73 24 27 44 52 44 54 0 17 -27
-2 -67 -45 -25 -27 -53 -50 -62 -50 -10 0 -3 13 22 38 34 35 50 68 28 60 -15
-5 -101 -120 -101 -134 0 -7 5 -16 11 -19 6 -4 7 -19 4 -36 -4 -18 -3 -29 4
-29 6 0 11 -9 11 -20 0 -11 -5 -20 -11 -20 -6 0 -8 7 -5 16 9 23 -30 9 -76
-27 -36 -29 -58 -36 -58 -21 0 4 5 13 11 19 23 23 4 35 -23 14 -56 -45 -52
-15 7 46 45 46 54 63 35 63 -5 0 -10 -3 -10 -7 0 -12 -52 -63 -119 -117 -62
-50 -77 -76 -22 -36 17 12 31 19 31 15 0 -16 -69 -78 -107 -97 -24 -12 -64
-41 -88 -64 -24 -23 -47 -39 -50 -36 -3 3 -5 -2 -5 -10 0 -8 -18 -28 -40 -43
-22 -16 -48 -39 -58 -52 -10 -14 -29 -24 -47 -26 -40 -3 -85 -65 -85 -118 0
-25 -29 -71 -41 -63 -5 3 -6 11 -3 17 5 8 3 8 -7 0 -32 -31 -40 1 -9 37 11 13
20 28 20 34 0 6 -13 -3 -28 -20 -93 -106 -104 -125 -82 -139 15 -9 12 -48 -5
-71 -23 -29 -38 1 -19 37 8 16 14 30 14 32 0 4 -39 3 -73 -2 -5 -1 -5 -21 -2
-44 6 -40 4 -47 -24 -75 -17 -17 -31 -35 -31 -41 0 -5 -6 -14 -13 -18 -21 -13
-27 -41 -16 -70 8 -21 6 -38 -6 -70 -18 -48 -35 -56 -35 -19 0 38 -20 42 -46
10 -16 -19 -23 -38 -21 -57 2 -15 0 -30 -4 -33 -13 -8 -62 44 -56 60 9 23 -19
41 -46 29 -48 -20 -72 10 -47 58 12 22 7 24 -20 7 -17 -11 -22 -10 -30 1 -6
11 10 34 61 89 60 64 83 102 63 102 -9 0 -34 -28 -34 -37 0 -9 -50 -58 -85
-84 -19 -13 -19 -13 -6 4 8 9 11 20 7 24 -3 3 2 15 11 26 17 19 17 20 -5 8
l-22 -12 20 33 c21 34 28 118 10 118 -5 0 -15 -9 -22 -20 -13 -20 -38 -28 -38
-11 0 4 11 20 25 35 37 40 49 66 30 66 -8 0 -15 8 -15 17 0 9 -3 14 -6 11 -7
-8 -54 36 -54 51 0 6 4 11 10 11 20 0 23 51 4 88 -11 20 -20 38 -21 40 0 2
-10 -5 -22 -14 -15 -14 -18 -21 -9 -31 8 -10 7 -17 -7 -27 -12 -9 -16 -21 -13
-39 5 -28 -17 -46 -36 -27 -5 5 -21 10 -33 10 -20 0 -22 3 -14 18 6 12 4 28
-6 52 -9 19 -15 45 -14 58 1 20 -2 22 -22 16 -54 -18 -61 -13 -69 51 -5 33 -9
71 -11 85 -12 87 -34 113 -58 68 -29 -54 -80 -73 -101 -38 -7 11 -19 20 -26
20 -7 0 -20 15 -29 34 -16 34 -48 53 -59 35 -13 -21 -34 -8 -34 21 0 17 5 30
10 30 6 0 10 7 10 15 0 8 -4 15 -10 15 -5 0 -10 9 -10 20 0 11 -5 20 -10 20
-6 0 -9 3 -9 8 1 4 1 19 0 34 -1 20 -5 25 -20 21 -14 -3 -20 2 -25 23 -4 15
-16 39 -27 52 -10 14 -22 42 -25 64 -4 22 -12 38 -20 38 -8 0 -14 5 -14 10 0
6 5 10 10 10 18 0 10 31 -15 56 -14 14 -25 29 -25 33 0 5 -6 14 -13 20 -8 6
-12 23 -9 41 4 26 -36 128 -58 150 -27 26 -50 96 -50 148 0 33 -9 88 -19 123
-12 38 -20 93 -20 134 0 40 -4 71 -10 73 -6 2 -11 12 -11 21 0 10 -3 21 -7 25
-6 6 -12 34 -14 61 0 6 5 44 11 85 6 47 7 84 1 100 -17 45 -24 84 -22 121 2
29 -2 37 -19 42 -20 5 -20 7 -6 41 9 23 11 36 4 36 -6 0 -8 10 -4 25 5 21 2
27 -21 37 -36 16 -43 26 -43 65 0 17 -4 35 -10 38 -5 3 -10 30 -10 60 0 30 -5
57 -10 60 -6 4 -9 26 -8 49 2 25 -3 50 -10 59 -8 9 -21 57 -30 107 -15 85 -15
93 1 119 21 36 21 38 -3 44 -20 5 -29 47 -10 47 15 0 12 16 -5 34 -12 11 -14
25 -9 51 4 24 2 35 -5 35 -7 0 -9 5 -6 10 4 6 11 8 16 5 13 -8 11 9 -2 22 -8
8 -8 17 1 33 7 13 13 68 14 123 2 85 5 101 21 113 10 8 13 14 7 14 -7 0 -12 5
-12 11 0 6 7 9 15 5 20 -7 45 3 45 19 0 7 7 18 15 25 12 10 15 10 15 -4 0 -9
5 -16 10 -16 14 0 12 12 -6 38 -13 18 -13 26 -3 38 9 11 9 18 1 26 -15 15 -16
58 -1 58 6 0 8 7 5 16 -11 28 11 52 47 51 20 0 46 8 64 21 l31 22 0 -35 c0
-28 -4 -35 -19 -35 -21 0 -25 -15 -8 -26 8 -5 8 -9 -1 -14 -15 -9 -18 -86 -3
-83 6 1 13 -17 15 -40 3 -33 -1 -46 -18 -64 -20 -20 -21 -26 -11 -60 15 -52
22 -59 54 -57 15 1 41 2 56 3 24 1 27 4 22 22 -5 14 -2 25 6 30 11 8 10 12 -5
24 -21 16 -15 45 10 45 10 0 26 7 36 17 17 15 18 15 18 -9 0 -14 6 -31 14 -37
15 -12 52 -11 73 2 15 10 6 37 -13 37 -31 0 -11 17 35 30 43 11 49 16 40 31
-14 26 -13 27 41 34 28 4 67 18 87 32 21 15 62 37 91 50 55 26 61 33 37 53 -8
7 -15 16 -15 21 0 15 36 46 66 56 31 10 55 63 28 63 -23 0 -7 18 36 40 54 28
61 25 23 -9 -56 -49 -37 -114 20 -76 23 15 28 15 50 1 23 -16 25 -15 117 73
51 49 99 87 105 85 7 -3 36 15 65 40 50 43 70 54 70 41 0 -3 -12 -17 -27 -31
-14 -13 -23 -27 -20 -30 3 -4 30 1 59 9 145 42 500 78 564 57 22 -8 59 -10 93
-6 60 6 112 -1 235 -33 43 -12 96 -21 117 -21 21 0 41 -5 44 -11 4 -6 13 -8
21 -5 8 3 27 1 42 -5 15 -6 56 -13 92 -15 87 -5 102 -8 125 -20 23 -13 97 -26
140 -24 22 0 27 -2 18 -11 -18 -18 -4 -49 21 -45 11 2 15 1 8 -1 -7 -3 -12
-14 -10 -26 2 -17 -1 -21 -17 -19 -11 2 -39 6 -63 7 -24 2 -57 8 -75 14 -29 9
-118 25 -142 26 -5 0 -10 -6 -10 -13 0 -21 -26 -30 -59 -20 -17 5 -59 9 -94
10 -34 0 -65 5 -68 10 -4 5 -10 5 -17 -1 -8 -6 -30 -6 -62 0 -27 5 -56 7 -63
4 -7 -3 -61 -8 -120 -11 -59 -3 -111 -9 -116 -14 -14 -13 4 -31 25 -25 13 4
19 2 19 -9 0 -19 10 -20 46 -4 24 11 28 10 50 -17 13 -17 24 -26 24 -22 0 5
23 -4 50 -19 28 -15 50 -33 50 -41 0 -10 9 -13 28 -10 19 3 36 -3 55 -19 28
-24 35 -44 16 -44 -8 0 -8 -4 0 -14 8 -9 8 -16 2 -20 -15 -10 -73 -17 -106
-14 -66 6 -497 2 -599 -5 -60 -5 -127 -15 -150 -23 -101 -38 -164 -56 -198
-59 -35 -2 -36 -1 -34 31 2 23 -1 31 -10 27 -28 -11 -1 36 32 53 19 10 34 24
34 31 0 7 3 13 8 14 33 3 58 12 72 24 9 8 24 15 33 15 9 0 20 6 24 13 12 18
78 65 107 77 30 11 35 30 9 30 -85 0 -413 -98 -432 -129 -3 -5 -27 -19 -53
-31 -26 -12 -63 -39 -83 -61 -19 -21 -38 -39 -41 -39 -8 0 -34 -27 -34 -37 0
-5 -14 -37 -31 -72 -23 -47 -29 -69 -22 -83 5 -13 5 -41 -2 -72 -12 -61 -68
-129 -121 -146 -24 -8 -34 -18 -34 -32 0 -12 5 -18 13 -15 17 6 52 -8 53 -22
1 -6 2 -15 3 -20 0 -5 15 -14 31 -20 17 -5 30 -15 30 -20 0 -6 17 -19 38 -30
33 -17 41 -17 62 -5 34 18 40 17 40 -7 0 -20 4 -21 54 -15 40 5 57 4 63 -6 17
-26 51 -38 79 -28 15 6 34 9 43 8 9 -2 36 4 60 12 39 13 45 12 56 -3 9 -13 14
-14 25 -4 10 10 12 9 7 -5 -8 -24 6 -30 29 -13 10 8 33 15 50 15 29 0 32 3 36
35 6 52 -5 64 -41 43 -23 -12 -29 -13 -24 -3 2 8 12 17 21 20 10 2 23 14 29
25 11 16 10 18 -2 14 -22 -9 -18 9 6 24 13 9 25 10 32 4 23 -20 138 -35 215
-29 132 10 189 31 250 90 50 48 112 149 112 180 0 8 15 31 34 53 28 31 37 37
47 27 7 -7 23 -13 35 -13 13 0 26 -5 29 -11 4 -5 26 -9 48 -8 57 4 105 -9 117
-31 18 -33 11 -75 -14 -99 -20 -19 -23 -28 -16 -46 7 -18 5 -25 -7 -29 -13 -5
-14 -9 -5 -18 17 -17 267 -13 375 6 66 11 94 12 112 4 57 -26 113 28 80 79 -9
13 -36 45 -61 71 -25 26 -46 52 -47 57 -1 6 -12 20 -24 32 -26 25 -16 37 21
27 19 -4 32 1 56 25 31 29 33 30 56 13 13 -9 28 -29 33 -44 6 -16 17 -28 25
-28 16 0 21 -16 17 -57 -1 -13 4 -23 11 -23 8 0 14 -10 15 -21 1 -12 9 -29 17
-38 9 -10 16 -23 16 -29 0 -7 4 -12 8 -12 4 0 9 -24 10 -53 2 -45 -2 -59 -23
-83 -14 -16 -25 -25 -25 -20 0 6 -7 1 -15 -10 -8 -10 -15 -29 -15 -42 0 -46
-69 -112 -118 -112 -10 0 -35 -15 -55 -34 -20 -18 -37 -31 -37 -27 0 3 -9 -7
-19 -23 -11 -16 -27 -33 -35 -38 -23 -13 -19 -41 9 -68 14 -13 23 -30 20 -38
-3 -8 6 -18 23 -25 16 -7 27 -18 25 -24 -10 -28 18 -10 59 38 24 29 53 53 68
56 15 2 43 20 63 39 47 45 73 45 81 0 8 -42 31 -52 83 -35 75 24 108 44 118
74 5 17 22 43 38 58 44 44 74 126 42 113 -18 -7 -20 15 -4 64 14 43 13 224 -1
250 -6 10 -10 32 -10 48 0 16 -7 45 -15 65 -8 19 -12 37 -9 39 2 3 -2 18 -11
34 -8 16 -15 34 -15 41 0 6 -10 20 -23 30 -25 20 -47 64 -47 93 0 22 -28 53
-40 45 -5 -3 -14 5 -21 17 -7 13 -13 23 -13 24 -1 0 4 7 11 15 6 8 14 31 18
51 4 21 10 36 14 34 3 -2 17 0 30 5 18 7 22 15 19 34 -4 17 -1 25 8 25 17 0
17 10 0 33 -9 12 -14 48 -15 101 -1 81 -10 147 -30 215 -13 42 -74 97 -125
112 -21 6 -56 21 -77 35 -21 13 -47 24 -56 24 -10 0 -33 9 -52 21 -19 11 -73
27 -120 35 -137 23 -173 31 -219 48 -24 9 -47 14 -52 11 -16 -10 -50 14 -44
30 8 20 -35 20 -62 0 -25 -19 -58 -19 -74 1 -10 11 -32 15 -94 14 -87 -2 -159
6 -191 20 -69 30 -257 53 -304 36 -40 -13 -61 -6 -99 32 -31 31 -63 32 -180 6
-72 -17 -73 -17 -93 5 -16 17 -24 19 -34 11 -8 -7 -24 -9 -35 -5 -12 4 -35 0
-54 -9 -23 -11 -52 -14 -97 -11 -66 4 -88 -4 -134 -46 -11 -10 -39 -35 -62
-55 -24 -20 -41 -40 -38 -44 6 -9 -42 -50 -57 -50 -5 0 -4 9 2 20 6 11 7 20 2
20 -13 0 -249 -217 -256 -235 -8 -22 -37 -18 -43 5 -3 12 -18 27 -34 36 -27
13 -29 19 -31 77 -3 108 -4 116 -11 123 -9 9 -97 11 -97 2 0 -5 -7 -8 -15 -8
-8 0 -15 8 -15 18 0 10 -6 26 -13 37 -19 28 -27 64 -16 71 14 8 0 24 -22 24
-10 0 -19 5 -19 10 0 6 10 10 22 10 21 0 21 0 2 15 -26 20 -34 19 -34 -5 0
-21 -29 -28 -31 -7 -2 26 3 63 12 73 5 7 1 19 -11 32 -27 29 -27 100 -1 129
14 15 16 24 9 31 -8 8 -8 19 0 39 13 34 19 109 9 119 -13 13 -7 55 9 61 9 3
14 13 11 24 -3 10 4 30 15 44 19 24 19 27 4 44 -16 18 -22 62 -9 74 13 14 20
256 9 302 -4 14 -2 25 3 25 8 0 28 93 29 140 2 79 28 122 71 118 20 -2 26 2
27 17 0 11 -6 28 -14 37 -14 17 -10 54 6 45 4 -3 6 23 5 58 -2 57 0 65 18 70
14 5 19 13 16 26 -3 12 0 19 10 19 12 0 13 10 9 54 -7 60 0 90 19 83 12 -5 95
75 95 92 0 11 -32 23 -51 19 -13 -3 -14 6 -7 59 1 7 5 10 10 7 4 -3 8 4 8 15
0 22 32 47 65 53 15 2 20 -3 20 -21 1 -34 43 -38 51 -4 4 12 4 29 1 37 -3 8 1
22 8 33 14 17 14 17 15 -1 0 -16 5 -14 30 14 17 18 30 39 30 46 0 6 11 19 25
28 19 13 24 22 19 40 -4 16 0 25 11 30 9 3 14 10 10 16 -3 5 11 36 32 67 29
44 38 69 39 103 1 64 14 110 30 110 8 0 14 9 14 20 0 11 4 20 10 20 5 0 16 15
24 33 8 17 28 47 44 66 28 31 30 32 41 15 9 -16 12 -17 21 -4 8 13 10 12 10
-3 0 -31 23 -13 50 36 16 32 26 42 30 32 4 -12 11 -10 35 11 20 17 37 23 52
20 16 -5 23 -1 28 14 3 11 15 25 26 30 11 6 19 21 19 35 0 13 5 27 10 30 6 3
10 17 10 31 0 13 5 24 10 24 6 0 10 14 10 30 0 22 5 30 18 30 14 0 15 2 2 10
-13 9 -13 10 0 11 8 1 18 1 23 0 4 -1 5 11 1 26 -4 21 -3 24 5 13 8 -11 9 -5
4 23 -4 28 -2 37 8 37 9 0 26 31 42 75 16 41 32 75 38 75 13 0 11 -27 -5 -63
-35 -77 -40 -157 -10 -157 19 0 18 -26 -1 -34 -8 -3 -12 -12 -9 -21 4 -8 1
-22 -6 -30 -6 -8 -9 -19 -6 -24 4 -5 2 -12 -4 -16 -5 -3 -10 -21 -11 -38 -1
-18 -5 -43 -10 -57 -6 -18 -7 -9 -3 28 4 42 2 53 -8 50 -8 -3 -15 -32 -19 -79
-4 -41 -12 -126 -17 -189 -23 -247 -25 -296 -12 -284 6 6 16 58 21 115 6 57
19 154 31 214 11 61 23 128 25 150 3 22 9 45 13 50 4 6 10 29 14 52 3 24 15
58 26 78 14 24 16 36 8 41 -7 5 -4 10 9 15 15 5 23 21 29 51 4 24 7 46 6 51
-1 4 2 7 7 7 5 0 12 8 15 18 4 10 22 24 41 32 18 7 34 16 33 19 -1 16 15 51
24 51 6 0 8 -7 4 -15 -7 -19 23 -20 48 -2 22 16 66 1 66 -23 1 -12 3 -11 11 3
6 10 22 17 40 17 24 0 29 4 25 18 -14 50 -16 81 -6 87 5 3 8 10 5 15 -6 10 14
26 46 33 22 6 27 2 37 -26 17 -48 15 -118 -8 -211 -11 -45 -24 -114 -30 -155
-6 -40 -14 -92 -20 -114 -14 -65 -19 -117 -12 -117 4 0 31 96 60 214 29 117
62 240 72 272 l18 59 1 -45 c1 -25 -8 -77 -19 -115 -24 -85 -26 -112 -6 -96
11 9 15 7 21 -11 4 -13 7 -36 6 -53 -1 -26 0 -27 8 -10 5 12 16 27 25 34 14
11 16 8 22 -28 10 -63 24 -59 24 7 0 68 16 162 30 176 6 6 8 -92 5 -265 -3
-189 -1 -263 6 -239 5 19 10 99 10 178 0 79 4 167 10 195 5 29 12 75 15 102 7
60 74 209 102 224 17 9 21 7 27 -17 6 -23 8 -25 16 -9 14 23 31 11 24 -16 -14
-50 -36 -85 -55 -90 -13 -3 -18 -10 -14 -21 6 -17 24 -22 24 -7 0 4 11 7 24 6
23 -3 25 2 37 76 11 70 14 77 24 59 16 -30 -15 -146 -39 -144 -21 2 -21 -15 0
-23 20 -7 44 17 48 48 1 13 8 34 15 47 43 80 35 -85 -9 -173 -17 -33 -30 -69
-29 -80 0 -19 1 -19 8 -1 7 18 8 18 14 2 8 -21 -6 -87 -33 -156 -11 -28 -20
-60 -20 -71 0 -19 1 -19 16 -5 21 22 23 21 20 -16 -2 -18 -1 -24 1 -13 3 11 9
25 14 32 6 7 6 13 0 17 -5 4 -1 22 10 46 10 21 19 44 19 50 0 5 4 18 9 28 5 9
18 35 29 57 11 22 22 45 23 50 8 31 24 65 31 65 4 0 8 8 8 19 0 10 7 24 15 31
8 7 15 8 15 2 0 -14 40 -23 41 -9 5 58 5 89 -2 93 -9 5 8 59 26 86 10 15 14
14 39 -13 25 -26 27 -33 18 -54 -9 -20 -9 -23 4 -18 12 4 14 0 8 -23 -4 -16
-13 -41 -20 -56 -8 -15 -14 -34 -14 -43 0 -31 20 -13 50 48 54 105 73 113 57
22 -9 -50 -6 -77 9 -63 3 3 12 35 20 69 8 35 19 68 24 73 4 4 6 14 4 21 -3 6
2 18 11 25 14 12 18 11 26 -1 6 -10 9 -5 9 19 0 20 4 31 10 27 6 -3 15 6 20
20 19 49 35 23 36 -56 0 -93 1 -94 19 -79 11 9 14 22 10 41 -8 35 4 99 18 99
6 0 19 7 29 17 23 21 23 18 -3 -132 -26 -154 -33 -219 -20 -187 6 12 17 22 24
22 18 0 37 43 37 84 0 19 6 38 13 44 11 9 13 0 9 -51 l-3 -62 20 25 c11 14 21
31 21 38 0 6 8 12 19 12 19 0 31 -34 31 -86 0 -13 4 -24 9 -24 16 0 21 63 16
185 -3 66 -1 134 4 150 l9 30 1 -32 c1 -34 30 -73 54 -73 21 0 37 55 22 77
-18 27 -26 76 -15 93 9 13 11 13 20 0 5 -8 10 -32 10 -52 0 -21 5 -38 11 -38
7 0 8 -12 4 -32 l-8 -33 21 25 c16 20 30 25 63 25 40 0 43 3 66 44 16 31 23
38 23 23 0 -23 27 -42 58 -42 11 0 31 15 46 34 26 35 32 57 19 70 -9 9 -13 38
-6 49 3 4 12 2 22 -7 9 -8 38 -18 65 -23z m433 -35 c-3 -8 -6 -5 -6 6 -1 11 2
17 5 13 3 -3 4 -12 1 -19z m-1241 -79 c-9 -20 -15 -27 -16 -16 0 20 19 61 26
54 2 -2 -2 -19 -10 -38z m1274 -8 c0 -6 -4 -13 -10 -16 -5 -3 -10 1 -10 9 0 9
5 16 10 16 6 0 10 -4 10 -9z m-1424 -28 c-10 -10 -19 5 -10 18 6 11 8 11 12 0
2 -7 1 -15 -2 -18z m-236 -62 c0 -19 -17 -38 -25 -29 -7 7 7 48 16 48 5 0 9
-9 9 -19z m220 9 c0 -5 -2 -10 -4 -10 -3 0 -8 5 -11 10 -3 6 -1 10 4 10 6 0
11 -4 11 -10z m-2115 -69 c-3 -5 3 -11 12 -14 17 -4 17 -4 0 -12 -10 -4 -31
-20 -47 -36 -24 -24 -50 -38 -50 -26 0 2 19 24 42 50 41 45 56 58 43 38z
m1208 -16 c-3 -9 -8 -14 -10 -11 -3 3 -2 9 2 15 9 16 15 13 8 -4z m-283 -15
c0 -5 -5 -10 -11 -10 -5 0 -7 5 -4 10 3 6 8 10 11 10 2 0 4 -4 4 -10z m580
-79 c0 -59 -25 -151 -41 -151 -10 0 -12 73 -2 83 3 4 7 31 8 60 3 96 35 104
35 8z m1950 -168 c0 -8 -5 -11 -10 -8 -7 4 -9 -2 -4 -19 5 -21 3 -25 -10 -20
-18 7 -32 57 -27 98 2 14 51 -35 51 -51z m-3687 -3203 c-8 -29 -21 -25 -15 5
2 14 8 23 12 20 5 -3 6 -14 3 -25z m8 -283 c-6 -8 -8 -17 -4 -20 3 -4 1 -7 -5
-7 -15 0 -15 13 0 28 16 16 23 15 9 -1z m-76 -175 c-2 -20 -14 -55 -26 -77
l-21 -40 7 40 c4 22 10 45 15 50 4 6 10 22 14 38 9 40 17 33 11 -11z m755 -37
c-7 -8 -19 -15 -27 -15 -8 0 -11 -5 -8 -10 7 -12 -23 -26 -33 -15 -9 8 48 55
67 55 11 0 11 -3 1 -15z m2125 -45 c3 -5 -1 -10 -10 -10 -9 0 -13 5 -10 10 3
6 8 10 10 10 2 0 7 -4 10 -10z m-769 -268 c10 -16 8 -18 -22 -18 -19 0 -34 5
-34 11 0 29 39 34 56 7z m-506 -229 c0 -5 -10 -20 -23 -35 -18 -21 -32 -27
-79 -30 -55 -4 -58 -4 -58 19 0 13 5 23 11 23 5 0 7 5 4 11 -4 6 2 5 13 -2 16
-10 26 -10 44 -1 13 6 34 13 48 15 14 2 28 5 33 6 4 0 7 -2 7 -6z m-482 -142
c23 -25 42 -47 42 -49 0 -2 -10 -1 -22 2 -13 4 -32 9 -43 11 -11 3 -25 12 -31
20 -6 8 -19 15 -28 15 -18 0 -21 22 -5 51 12 24 20 19 87 -50z m-622 -75 c3
-8 12 -12 19 -10 7 3 16 0 20 -6 5 -8 -4 -11 -32 -9 -21 2 -44 0 -50 -4 -6 -4
-14 -3 -18 3 -3 5 0 10 8 10 8 0 17 7 21 15 7 19 25 19 32 1z m-6 -46 c0 -5
-4 -10 -10 -10 -5 0 -10 5 -10 10 0 6 5 10 10 10 6 0 10 -4 10 -10z m560 -120
c0 -5 -5 -10 -11 -10 -5 0 -7 5 -4 10 3 6 8 10 11 10 2 0 4 -4 4 -10z m1810
-121 c0 -18 -31 -43 -56 -44 -34 -1 -29 17 9 37 39 20 47 21 47 7z m-3276
-1376 c-11 -47 -46 -114 -57 -110 -18 6 -29 87 -14 101 10 10 45 26 75 35 1 1
0 -11 -4 -26z m70 -12 c-4 -18 -13 -35 -20 -38 -21 -8 -17 -36 6 -51 11 -7 20
-21 20 -33 0 -11 4 -28 10 -38 5 -11 6 -30 0 -47 -4 -16 -9 -21 -9 -11 -1 11
-9 17 -27 17 -32 0 -60 15 -68 35 -12 31 16 109 51 141 18 17 33 39 33 49 0
10 2 16 5 13 3 -3 2 -19 -1 -37z m5336 -751 c0 -5 -5 -10 -11 -10 -5 0 -7 5
-4 10 3 6 8 10 11 10 2 0 4 -4 4 -10z m-62 -52 c-7 -19 -38 -22 -38 -4 0 10 9
16 21 16 12 0 19 -5 17 -12z m-4593 -139 c-5 -38 -7 -40 -24 -29 -12 7 -12 13
-1 39 15 38 30 32 25 -10z m133 -36 c-17 -39 -29 -54 -39 -47 -15 9 -10 24 16
49 31 32 37 31 23 -2z m4518 -3 c9 0 13 -4 9 -10 -3 -5 -12 -7 -20 -3 -10 3
-15 -1 -16 -13 0 -18 -1 -17 -9 1 -13 30 -12 38 6 31 9 -3 22 -6 30 -6z m114
-100 c0 -5 -5 -10 -11 -10 -5 0 -7 5 -4 10 3 6 8 10 11 10 2 0 4 -4 4 -10z
m1307 -421 c-9 -6 -17 -17 -17 -26 0 -21 -29 -53 -47 -53 -31 0 12 75 52 90
26 10 35 1 12 -11z m-5095 -81 c-9 -9 -12 -7 -12 12 0 19 3 21 12 12 9 -9 9
-15 0 -24z m4856 -6 c2 -7 -3 -12 -12 -12 -9 0 -16 7 -16 16 0 17 22 14 28 -4z
m142 -62 c0 -5 -5 -10 -12 -10 -7 0 -24 -12 -40 -27 -15 -14 -31 -23 -35 -19
-5 4 7 21 25 37 32 29 62 38 62 19z m-926 -169 c-4 -14 -11 -34 -15 -43 -14
-27 -10 -52 11 -71 22 -19 25 -33 10 -42 -5 -3 -10 -19 -10 -34 0 -20 -8 -34
-27 -47 -15 -9 -35 -25 -44 -33 -19 -19 -41 -119 -27 -127 5 -4 8 -14 5 -24
-3 -11 2 -21 11 -25 17 -6 12 -15 -11 -19 -8 -1 -22 -9 -31 -18 -15 -16 -15
-18 6 -32 12 -9 19 -16 15 -16 -4 0 -3 -9 3 -19 7 -15 7 -22 -2 -28 -20 -13
-51 -73 -38 -73 18 0 6 -23 -21 -40 -14 -8 -39 -24 -57 -35 -17 -11 -32 -26
-32 -32 0 -7 -7 -13 -15 -13 -9 0 -18 -7 -21 -15 -4 -8 -12 -15 -19 -15 -7 0
-19 -7 -26 -16 -12 -14 -10 -19 13 -38 25 -20 26 -23 12 -48 -11 -22 -22 -28
-46 -28 -17 0 -39 7 -48 15 -14 12 -23 13 -51 4 -38 -13 -109 -76 -109 -96 0
-8 -8 -17 -17 -20 -16 -6 -55 -44 -71 -68 -4 -5 -23 -17 -42 -26 -19 -8 -51
-24 -71 -33 -20 -10 -55 -19 -77 -20 -30 -2 -48 -10 -71 -34 -25 -24 -39 -31
-62 -28 -16 1 -60 -3 -97 -11 -37 -7 -105 -20 -151 -28 -47 -8 -98 -19 -115
-24 -17 -5 -38 -10 -46 -10 -133 -6 -220 -6 -240 0 -14 5 -104 10 -200 13
-256 7 -307 12 -343 29 -61 29 -82 36 -129 42 -27 3 -48 10 -48 16 0 5 -7 9
-15 9 -8 0 -29 8 -47 18 -18 11 -50 22 -70 26 -21 4 -38 11 -38 15 0 5 -9 11
-20 14 -12 3 -20 14 -20 27 0 11 -6 20 -12 19 -47 -6 -80 2 -85 21 -5 19 -16
25 -38 20 -5 -1 -2 7 8 18 17 19 24 47 10 40 -5 -2 -20 -10 -35 -17 -23 -12
-29 -11 -44 3 -11 12 -19 14 -24 6 -4 -6 -14 -8 -24 -4 -14 5 -15 9 -4 15 10
7 10 9 -2 9 -8 0 -22 13 -32 29 -11 20 -26 31 -45 33 -21 2 -29 9 -32 28 -1
14 -8 28 -13 31 -15 9 0 29 16 23 12 -5 32 24 22 33 -2 2 -21 -5 -42 -16 -22
-12 -40 -17 -42 -11 -2 5 -8 10 -13 10 -22 0 -80 60 -77 78 2 8 -3 17 -9 19
-7 3 -13 0 -13 -6 0 -6 -4 -11 -10 -11 -5 0 -10 11 -10 25 0 16 -6 25 -15 25
-19 0 -20 19 -1 26 17 6 10 40 -10 48 -23 9 -16 23 21 45 53 31 82 35 109 18
30 -20 99 -124 91 -137 -3 -6 1 -10 9 -10 9 0 16 -5 16 -10 0 -6 10 -8 23 -5
27 7 75 -15 69 -33 -2 -6 5 -15 15 -19 22 -8 47 -32 56 -55 3 -10 13 -18 22
-18 8 0 15 -5 15 -11 0 -14 25 -39 39 -39 6 0 11 -4 11 -9 0 -15 93 -56 98
-43 2 7 10 5 21 -6 38 -36 57 -47 81 -49 50 -4 66 -13 83 -48 15 -32 20 -35
59 -35 27 0 52 -8 68 -20 14 -11 33 -20 42 -20 9 0 20 -5 23 -10 4 -6 12 -7
18 -3 7 4 22 6 34 5 27 -4 34 8 54 88 15 58 18 62 26 41 7 -17 12 -21 17 -12
13 21 -14 43 -46 36 -22 -5 -28 -3 -28 10 0 12 -5 15 -21 10 -18 -6 -20 -4
-14 15 7 22 -11 80 -25 80 -4 0 -10 -7 -14 -15 -8 -23 -46 -19 -46 4 0 11 -4
23 -10 26 -5 3 -10 12 -10 19 0 7 -20 34 -45 58 -47 48 -53 69 -34 122 10 29
105 103 116 92 3 -2 0 -20 -5 -40 -11 -40 -2 -46 31 -22 13 10 36 12 76 9 37
-4 66 -1 81 7 19 10 25 10 34 -1 24 -30 55 -39 98 -30 28 7 48 6 61 -1 17 -9
19 -8 14 6 -4 9 -2 16 3 16 6 0 10 -6 10 -13 0 -19 117 -39 159 -27 30 8 88 7
98 -3 2 -3 29 8 58 23 44 23 66 28 115 27 33 -1 59 1 57 6 -4 13 57 38 87 35
21 -2 35 -11 43 -28 9 -17 13 -20 13 -8 0 11 6 15 20 11 21 -6 60 21 60 41 0
25 60 74 104 85 30 7 47 18 51 31 7 21 58 53 69 43 3 -4 6 -15 6 -25 0 -14 7
-18 33 -17 38 2 87 20 87 33 0 4 12 18 27 30 27 21 37 23 123 29 25 2 57 7 72
11 47 14 150 12 155 -2 3 -7 13 -10 24 -7 14 5 19 1 19 -11 0 -26 10 -11 15
22 2 16 6 37 8 47 5 27 79 137 93 137 16 0 23 21 17 53 -7 36 51 90 109 104
57 12 69 7 62 -26z m-4134 5 c0 -8 -4 -18 -10 -21 -5 -3 -10 3 -10 14 0 12 5
21 10 21 6 0 10 -6 10 -14z m2957 -36 c20 0 24 -4 18 -17 -4 -10 -8 -34 -9
-53 -2 -31 -30 -100 -41 -100 -2 0 -12 8 -22 19 -10 10 -29 22 -42 26 -23 7
-24 6 -16 -36 4 -24 7 -59 6 -77 -2 -33 -2 -33 36 -26 21 4 47 13 58 20 11 7
38 16 61 19 38 7 40 9 41 42 1 44 25 63 36 29 10 -30 32 -39 58 -25 15 7 23 6
34 -5 23 -23 18 -31 -27 -52 -24 -10 -72 -38 -107 -61 -35 -24 -96 -55 -135
-69 -39 -15 -76 -31 -83 -36 -6 -5 -56 -14 -110 -19 -54 -6 -116 -14 -138 -19
-22 -5 -89 -9 -148 -9 -59 0 -112 -3 -117 -6 -5 -3 -11 -1 -15 5 -3 5 -27 10
-53 10 -58 0 -86 15 -59 31 12 7 16 17 12 31 -5 15 -3 19 12 17 10 -1 25 1 34
5 9 4 27 8 41 10 13 1 29 5 35 9 6 4 18 4 27 1 9 -3 22 -2 29 4 6 6 23 12 37
14 14 1 23 6 20 9 -3 3 1 13 7 21 10 11 10 21 1 46 -16 42 5 86 39 79 18 -3
31 6 59 39 36 45 60 54 82 32 15 -15 15 -62 0 -106 -11 -29 -10 -35 5 -47 9
-6 17 -17 17 -24 0 -6 13 -11 29 -11 20 0 32 -6 36 -19 11 -34 29 -43 60 -27
l29 15 0 123 c1 118 2 123 22 126 12 2 24 12 27 24 5 16 12 19 31 16 21 -4 26
-1 26 14 0 14 5 18 16 14 9 -3 27 -6 41 -6z m-2047 -376 c0 -23 -2 -24 -15
-10 -8 8 -15 19 -15 25 0 6 7 11 15 11 9 0 15 -10 15 -26z m66 -7 c8 3 14 0
14 -6 0 -6 8 -11 18 -11 27 0 32 -9 22 -36 -6 -15 -6 -24 0 -24 5 0 7 -7 3
-16 -4 -11 -16 -14 -41 -12 -31 3 -36 8 -36 29 0 13 4 31 9 39 5 9 4 15 -3 18
-7 2 -12 11 -11 20 0 10 3 12 5 5 3 -7 12 -9 20 -6z m874 -118 c0 -11 -60 -39
-85 -39 -27 0 -16 18 23 33 44 19 62 21 62 6z m-135 -9 c-3 -5 -13 -10 -21
-10 -8 0 -12 5 -9 10 3 6 13 10 21 10 8 0 12 -4 9 -10z m-2455 -670 c0 -5 -4
-10 -10 -10 -5 0 -10 5 -10 10 0 6 5 10 10 10 6 0 10 -4 10 -10z m3176 -875
c-11 -8 -27 -15 -35 -14 -9 0 -2 7 14 14 39 18 45 18 21 0z m-548 -82 c-11 -3
-15 -10 -11 -20 4 -10 2 -14 -5 -9 -6 3 -13 -3 -17 -15 -4 -11 -9 -18 -12 -16
-10 11 28 67 45 66 16 -1 16 -2 0 -6z m-61 -105 c-3 -8 -6 -5 -6 6 -1 11 2 17
5 13 3 -3 4 -12 1 -19z m-42 -128 c-3 -5 -11 -10 -16 -10 -6 0 -7 5 -4 10 3 6
11 10 16 10 6 0 7 -4 4 -10z m-1645 -220 c0 -5 -4 -10 -10 -10 -5 0 -10 5 -10
10 0 6 5 10 10 10 6 0 10 -4 10 -10z m20 -40 c0 -5 -4 -10 -10 -10 -5 0 -10 5
-10 10 0 6 5 10 10 10 6 0 10 -4 10 -10z m3648 -2 c-3 -7 -12 -14 -21 -16 -12
-2 -15 1 -11 12 7 19 38 22 32 4z m-3314 -34 c4 -10 1 -14 -6 -12 -15 5 -23
28 -10 28 5 0 13 -7 16 -16z m2986 -174 c-20 -13 -33 -13 -25 0 3 6 14 10 23
10 15 0 15 -2 2 -10z m-54 -46 c-3 -25 -45 -74 -64 -74 -6 0 -13 8 -17 18 -4
12 4 26 32 49 46 40 52 40 49 7z m-2626 -25 c0 -5 -4 -9 -10 -9 -5 0 -10 7
-10 16 0 8 5 12 10 9 6 -3 10 -10 10 -16z m2420 -79 c0 -5 -4 -10 -8 -10 -5 0
-25 -15 -44 -34 -26 -25 -42 -33 -57 -29 -33 8 -21 25 39 55 61 30 70 33 70
18z m-130 -155 c0 -17 -7 -20 -58 -29 -45 -8 -38 15 9 31 45 16 49 16 49 -2z"/>
<path d="M6576 12163 c11 -44 15 -46 30 -17 12 22 12 29 2 36 -26 16 -39 9
-32 -19z"/>
<path d="M7982 12133 c-10 -22 -11 -37 -4 -50 10 -16 11 -16 17 -1 4 9 5 31 3
50 l-3 33 -13 -32z"/>
<path d="M7710 11976 c0 -8 5 -18 10 -21 6 -3 10 3 10 14 0 12 -4 21 -10 21
-5 0 -10 -6 -10 -14z"/>
<path d="M8000 11927 c0 -23 4 -36 10 -32 13 8 13 35 0 55 -7 11 -10 5 -10
-23z"/>
<path d="M7326 11939 c-11 -36 -13 -59 -6 -59 10 0 24 59 16 67 -3 3 -7 0 -10
-8z"/>
<path d="M6132 11855 c0 -16 2 -22 5 -12 2 9 2 23 0 30 -3 6 -5 -1 -5 -18z"/>
<path d="M6690 11786 c0 -55 2 -97 5 -95 10 11 15 165 5 179 -7 10 -10 -15
-10 -84z"/>
<path d="M7312 11798 c-16 -20 -32 -89 -31 -133 l1 -40 10 45 c5 25 15 65 24
89 15 46 14 60 -4 39z"/>
<path d="M8755 11684 c4 -42 14 -88 21 -103 8 -14 14 -34 14 -43 0 -10 7 -18
15 -18 11 0 15 12 15 51 0 29 -4 48 -9 44 -14 -8 -33 31 -30 63 4 49 -1 70
-17 76 -14 5 -15 -3 -9 -70z"/>
<path d="M9098 11674 c-5 -4 -8 -28 -8 -53 1 -36 3 -42 11 -28 11 19 8 93 -3
81z"/>
<path d="M7665 11638 c-19 -85 -31 -168 -24 -161 9 9 49 157 49 181 0 25 -18
11 -25 -20z"/>
<path d="M8608 11652 c-3 -11 -2 -25 2 -32 5 -8 9 -5 12 8 3 11 2 25 -2 32 -5
8 -9 5 -12 -8z"/>
<path d="M6572 11613 c-6 -21 -18 -72 -27 -113 -9 -41 -20 -91 -26 -111 -12
-48 -12 -109 1 -109 6 0 10 19 10 43 0 23 11 65 23 92 17 35 26 77 30 143 4
50 5 92 3 92 -1 0 -8 -17 -14 -37z"/>
<path d="M6692 11625 c0 -16 2 -22 5 -12 2 9 2 23 0 30 -3 6 -5 -1 -5 -18z"/>
<path d="M7063 11612 c-1 -26 1 -32 7 -22 12 18 13 47 3 53 -5 3 -9 -11 -10
-31z"/>
<path d="M7180 11554 c-11 -37 -19 -68 -17 -71 5 -5 32 67 41 110 11 49 -2 28
-24 -39z"/>
<path d="M6672 11544 c-6 -23 -12 -52 -11 -65 0 -16 6 -7 15 24 8 27 14 56 12
65 -2 10 -9 -2 -16 -24z"/>
<path d="M7043 11548 c-5 -7 -15 -33 -22 -58 -8 -25 -26 -84 -42 -132 -16 -47
-29 -92 -29 -100 0 -7 -13 -40 -28 -73 -16 -33 -32 -77 -36 -98 -4 -21 -10
-46 -13 -55 -6 -15 -4 -15 9 -4 9 7 31 59 48 115 18 56 46 137 62 179 29 75
40 112 57 196 9 45 8 49 -6 30z"/>
<path d="M8011 11534 c0 -11 3 -14 6 -6 3 7 2 16 -1 19 -3 4 -6 -2 -5 -13z"/>
<path d="M10700 11499 c0 -5 5 -7 10 -4 6 3 10 8 10 11 0 2 -4 4 -10 4 -5 0
-10 -5 -10 -11z"/>
<path d="M8836 11451 c-4 -6 -2 -28 4 -50 6 -22 7 -65 4 -98 -5 -46 -4 -56 6
-46 12 11 15 76 7 156 -5 41 -12 54 -21 38z"/>
<path d="M6883 11386 c-18 -8 -23 -19 -23 -50 0 -22 3 -36 7 -32 6 6 45 99 40
95 -1 -1 -12 -6 -24 -13z"/>
<path d="M7609 11368 c-4 -37 -12 -68 -58 -240 -28 -103 -51 -191 -51 -195 1
-4 10 15 21 42 16 40 56 190 103 388 2 9 0 17 -5 17 -5 0 -10 -6 -10 -12z"/>
<path d="M6630 11321 c-5 -11 -10 -35 -10 -53 1 -41 15 -20 23 35 6 41 3 46
-13 18z"/>
<path d="M6877 11223 c-11 -10 -8 -43 3 -43 6 0 10 11 10 25 0 26 -2 29 -13
18z"/>
<path d="M6505 11190 c-3 -5 -1 -10 4 -10 6 0 11 5 11 10 0 6 -2 10 -4 10 -3
0 -8 -4 -11 -10z"/>
<path d="M6980 11170 c0 -11 2 -20 4 -20 2 0 6 9 9 20 3 11 1 20 -4 20 -5 0
-9 -9 -9 -20z"/>
<path d="M6056 11163 c-7 -24 -26 -170 -25 -191 1 -30 28 81 35 146 6 59 1 82
-10 45z"/>
<path d="M8853 11145 c0 -22 2 -30 4 -17 2 12 2 30 0 40 -3 9 -5 -1 -4 -23z"/>
<path d="M5688 11154 c-5 -4 -8 -16 -8 -28 0 -14 3 -17 11 -9 6 6 9 19 7 28
-1 9 -6 13 -10 9z"/>
<path d="M11405 11010 c-3 -5 -1 -10 4 -10 6 0 11 5 11 10 0 6 -2 10 -4 10 -3
0 -8 -4 -11 -10z"/>
<path d="M6017 10910 c-3 -11 -1 -33 3 -48 7 -23 8 -21 9 21 1 50 -3 60 -12
27z"/>
<path d="M9017 10883 c-11 -17 -21 -139 -11 -130 5 5 9 14 9 20 1 7 5 28 9 49
9 41 5 80 -7 61z"/>
<path d="M5256 10845 c-3 -8 -1 -15 4 -15 6 0 10 7 10 15 0 8 -2 15 -4 15 -2
0 -6 -7 -10 -15z"/>
<path d="M7460 10826 c-6 -20 -10 -42 -7 -49 2 -6 10 8 16 32 15 53 8 66 -9
17z"/>
<path d="M5210 10801 c0 -11 26 -22 34 -14 12 12 5 23 -14 23 -11 0 -20 -4
-20 -9z"/>
<path d="M9001 10674 c0 -11 3 -14 6 -6 3 7 2 16 -1 19 -3 4 -6 -2 -5 -13z"/>
<path d="M8991 10634 c0 -11 3 -14 6 -6 3 7 2 16 -1 19 -3 4 -6 -2 -5 -13z"/>
<path d="M4970 9440 c-12 -8 -11 -10 7 -10 12 0 25 5 28 10 8 13 -15 13 -35 0z"/>
<path d="M11038 9220 c-20 -11 -39 -24 -43 -29 -12 -20 -95 -23 -189 -6 -93
17 -96 17 -153 -4 -32 -11 -52 -20 -45 -21 17 0 15 -20 -2 -20 -8 0 -16 -5
-18 -11 -2 -7 -55 -11 -148 -12 -86 -1 -153 -7 -165 -13 -11 -7 -65 -14 -120
-17 -121 -7 -208 -22 -255 -45 -19 -9 -71 -20 -115 -23 -44 -4 -114 -14 -155
-24 -41 -9 -93 -20 -115 -25 -38 -7 -71 -19 -105 -39 -8 -4 -31 -16 -50 -26
-19 -10 -39 -24 -43 -32 -4 -7 -14 -13 -22 -13 -7 0 -16 -6 -18 -12 -4 -10 -8
-9 -16 2 -10 13 -13 13 -22 -2 -5 -10 -15 -18 -20 -18 -6 0 -17 -7 -25 -15 -9
-8 -24 -15 -35 -15 -12 0 -19 -7 -19 -19 0 -11 -11 -23 -28 -30 -15 -6 -43
-35 -62 -63 -19 -29 -50 -66 -68 -84 -27 -26 -35 -42 -42 -95 -11 -74 -27
-163 -35 -199 -4 -18 1 -13 17 15 26 46 44 54 63 28 17 -23 29 -11 29 32 0 26
5 34 21 37 11 3 26 3 33 0 17 -5 15 -48 -4 -66 -8 -9 -14 -23 -12 -31 3 -14
26 -8 90 26 10 5 24 6 32 3 9 -3 35 3 58 13 24 11 75 27 115 37 39 9 102 30
140 46 37 16 100 34 138 40 39 6 97 20 130 30 33 10 101 24 150 30 50 7 110
20 135 30 111 45 190 71 198 66 5 -3 31 2 58 10 37 11 96 15 234 15 102 -1
239 3 305 7 87 7 132 6 165 -3 70 -20 193 -36 217 -29 37 10 114 -5 119 -24 3
-9 12 -32 20 -50 7 -17 14 -35 15 -40 3 -14 34 -31 56 -32 25 0 63 -44 63 -71
0 -26 44 -52 77 -46 15 3 34 1 42 -3 9 -5 28 -11 43 -14 20 -5 25 -10 21 -26
-3 -11 0 -20 6 -20 6 0 11 -10 11 -22 0 -13 3 -18 8 -12 4 6 17 16 30 23 15 8
22 21 22 42 0 29 -1 30 -32 24 -32 -7 -32 -7 -17 11 29 33 59 115 59 159 0 23
-7 62 -15 85 -8 23 -15 62 -15 86 0 79 -68 163 -177 220 -118 61 -214 122
-245 153 -17 17 -36 31 -42 31 -7 0 -25 14 -42 31 -16 17 -50 40 -76 51 -27
11 -48 24 -48 29 0 14 -22 10 -62 -11z m-1793 -507 c-20 -33 -135 -143 -149
-143 -5 0 0 8 10 18 11 9 30 33 43 52 25 37 90 100 105 100 4 0 1 -12 -9 -27z
m-134 -22 c-19 -12 -61 -74 -55 -82 7 -12 -44 -89 -59 -89 -24 0 -27 13 -7 27
11 8 20 21 20 29 0 8 6 14 14 14 8 0 18 5 22 11 4 8 -1 9 -16 4 -18 -6 -11 7
31 60 39 48 55 62 57 50 2 -10 -1 -21 -7 -24z m-111 -121 c0 -5 -5 -10 -11
-10 -5 0 -7 5 -4 10 3 6 8 10 11 10 2 0 4 -4 4 -10z m84 -32 c-11 -21 -47 -58
-55 -58 -14 0 4 41 24 55 26 18 41 19 31 3z"/>
<path d="M5010 8916 c0 -8 5 -18 10 -21 6 -3 10 0 10 9 0 8 6 17 13 19 6 3 2
6 -10 6 -14 1 -23 -5 -23 -13z"/>
<path d="M8890 8735 c0 -8 2 -15 4 -15 2 0 6 7 10 15 3 8 1 15 -4 15 -6 0 -10
-7 -10 -15z"/>
<path d="M8871 8698 c-60 -73 -66 -83 -43 -68 13 8 32 30 43 48 21 31 20 44 0
20z"/>
<path d="M9775 8389 c-101 -25 -99 -24 -170 -47 -78 -25 -155 -62 -155 -73 0
-5 -6 -9 -14 -9 -8 0 -16 -6 -19 -14 -3 -8 -16 -16 -29 -18 -13 -2 -23 -8 -23
-14 0 -6 -15 -25 -33 -43 -22 -22 -31 -39 -27 -51 3 -10 7 -50 8 -89 1 -39 4
-71 6 -71 3 0 17 11 31 25 31 29 73 37 77 14 2 -8 -23 -48 -57 -88 -33 -39
-60 -77 -60 -83 0 -6 -7 -19 -15 -28 -8 -9 -19 -37 -24 -63 -8 -44 -7 -47 20
-68 27 -20 43 -22 202 -26 94 -2 188 -7 207 -12 27 -5 47 -2 85 15 57 25 158
26 275 4 73 -13 163 -7 221 17 69 27 210 199 195 238 -6 16 13 35 35 35 10 0
20 6 22 13 4 9 7 9 14 0 5 -6 30 -14 55 -17 90 -11 162 -69 163 -131 1 -11 4
-39 9 -63 7 -36 5 -46 -11 -57 -30 -23 -4 -38 45 -26 26 5 58 5 83 0 42 -10
59 -6 59 14 0 26 96 43 193 35 183 -14 221 -13 242 8 19 19 4 44 -26 44 -10 0
-22 6 -26 13 -4 7 -26 26 -48 42 -59 43 -74 61 -108 123 -16 32 -34 60 -40 63
-5 4 -37 12 -71 19 -33 7 -90 25 -127 41 -48 21 -89 30 -160 35 -77 5 -103 12
-144 34 -67 38 -207 58 -445 65 -102 3 -189 6 -195 7 -5 0 -21 1 -35 2 -27 1
-36 31 -10 31 8 0 20 7 26 15 7 8 47 33 90 55 44 22 81 43 82 48 2 4 8 5 13 2
5 -4 6 1 3 9 -10 25 -70 37 -214 41 -69 3 -117 -2 -175 -16z m575 -454 c0 -3
-12 -23 -26 -45 l-26 -39 -89 -3 c-67 -2 -90 0 -94 10 -8 23 -6 60 5 67 6 3
10 2 10 -4 0 -11 82 -5 135 9 35 10 85 12 85 5z m52 -17 c-7 -7 -12 -8 -12 -2
0 14 12 26 19 19 2 -3 -1 -11 -7 -17z m-763 -10 c-7 -13 -18 -29 -26 -36 -20
-21 -17 17 4 40 23 25 36 23 22 -4z m91 0 c0 -7 10 -36 22 -66 19 -46 20 -54
7 -67 -12 -12 -19 -11 -57 13 -23 15 -45 35 -48 44 -3 10 -11 15 -20 11 -7 -3
-14 -1 -14 5 0 5 11 13 25 16 14 4 25 11 25 18 0 13 30 37 48 38 6 0 12 -6 12
-12z"/>
<path d="M8983 8314 c-15 -16 -16 -24 -4 -24 8 0 24 30 19 35 -2 2 -9 -3 -15
-11z"/>
<path d="M6380 8153 c-46 -8 -56 -13 -41 -23 8 -4 19 -7 25 -5 6 2 23 6 39 9
15 4 27 11 27 16 0 10 -6 10 -50 3z"/>
<path d="M6270 8140 c-20 -12 -5 -24 16 -12 9 5 12 12 7 15 -5 3 -15 2 -23 -3z"/>
<path d="M4733 7803 c-7 -15 -13 -33 -13 -41 0 -23 26 10 32 41 7 35 -3 35
-19 0z"/>
<path d="M4811 7778 c-1 -11 -9 -18 -21 -18 -11 0 -20 -4 -20 -10 0 -5 6 -10
13 -10 23 0 39 17 34 36 -4 17 -5 17 -6 2z"/>
<path d="M6219 7323 c-20 -5 -49 -92 -49 -147 l1 -41 16 30 c8 17 38 52 66 78
56 54 57 73 2 31 l-37 -28 21 34 c30 50 27 56 -20 43z"/>
<path d="M6426 7270 c-30 -33 -35 -45 -30 -68 9 -36 12 -38 21 -16 4 10 19 41
35 67 15 26 28 50 28 52 0 15 -22 0 -54 -35z"/>
<path d="M6356 7285 c-4 -11 -12 -28 -17 -37 -12 -23 -11 -30 2 -26 6 2 10 7
9 12 -1 5 4 12 10 16 6 4 10 18 8 31 -4 23 -5 23 -12 4z"/>
<path d="M6395 7290 c3 -5 8 -10 11 -10 2 0 4 5 4 10 0 6 -5 10 -11 10 -5 0
-7 -4 -4 -10z"/>
<path d="M7997 7166 c-4 -10 -5 -21 -2 -24 9 -9 17 6 13 25 -3 17 -4 17 -11
-1z"/>
<path d="M7770 7010 c0 -5 5 -10 11 -10 5 0 7 5 4 10 -3 6 -8 10 -11 10 -2 0
-4 -4 -4 -10z"/>
<path d="M7395 5730 c-3 -5 -2 -10 4 -10 5 0 13 5 16 10 3 6 2 10 -4 10 -5 0
-13 -4 -16 -10z"/>
<path d="M7275 5111 c-3 -5 -1 -12 5 -16 5 -3 10 1 10 9 0 18 -6 21 -15 7z"/>
<path d="M10165 5089 c-11 -17 1 -21 15 -4 8 9 8 15 2 15 -6 0 -14 -5 -17 -11z"/>
<path d="M10027 5063 c-4 -3 -7 -12 -7 -19 0 -9 6 -10 25 -1 14 7 25 15 25 20
0 9 -34 9 -43 0z"/>
<path d="M7285 4930 c-3 -5 -1 -10 4 -10 6 0 11 5 11 10 0 6 -2 10 -4 10 -3 0
-8 -4 -11 -10z"/>
<path d="M11300 4899 c-19 -16 -30 -29 -25 -29 12 0 70 49 64 54 -2 2 -20 -9
-39 -25z"/>
<path d="M11317 4843 c-4 -3 -7 -11 -7 -17 0 -6 5 -5 12 2 6 6 9 14 7 17 -3 3
-9 2 -12 -2z"/>
<path d="M11326 4795 c-16 -12 -17 -15 -4 -15 8 0 21 7 28 15 16 19 1 19 -24
0z"/>
<path d="M11277 4676 c-4 -10 -5 -21 -2 -24 9 -9 17 6 13 25 -3 17 -4 17 -11
-1z"/>
<path d="M6010 4613 c-19 -26 -41 -57 -48 -70 -12 -21 -11 -23 12 -23 16 0 27
7 31 20 3 11 12 19 18 17 7 -1 11 6 9 15 -2 10 3 28 10 40 33 62 14 62 -32 1z"/>
<path d="M11245 4630 c-3 -5 -1 -10 4 -10 6 0 11 5 11 10 0 6 -2 10 -4 10 -3
0 -8 -4 -11 -10z"/>
<path d="M6153 4569 c-7 -7 -13 -19 -13 -26 0 -8 -7 -25 -16 -38 -21 -32 -9
-52 17 -29 11 9 29 22 41 28 28 14 37 38 12 34 -12 -2 -20 5 -23 20 -5 18 -8
21 -18 11z"/>
<path d="M6093 4460 c2 -8 -13 -32 -35 -52 -35 -35 -44 -48 -34 -48 3 0 12 7
20 16 18 17 36 11 36 -13 0 -13 3 -13 15 -3 17 14 20 78 4 100 -9 13 -10 13
-6 0z"/>
<path d="M6296 4455 c-3 -8 -1 -15 3 -15 5 0 11 7 15 15 3 8 1 15 -3 15 -5 0
-11 -7 -15 -15z"/>
<path d="M6170 4359 c0 -11 4 -18 10 -14 5 3 7 12 3 20 -7 21 -13 19 -13 -6z"/>
<path d="M6161 4314 c0 -11 3 -14 6 -6 3 7 2 16 -1 19 -3 4 -6 -2 -5 -13z"/>
<path d="M6115 4240 c-3 -5 1 -10 9 -10 9 0 16 5 16 10 0 6 -4 10 -9 10 -6 0
-13 -4 -16 -10z"/>
<path d="M8727 3746 c-3 -8 1 -17 9 -20 8 -3 14 1 14 9 0 20 -17 28 -23 11z"/>
<path d="M9370 3739 c0 -5 5 -7 10 -4 6 3 10 8 10 11 0 2 -4 4 -10 4 -5 0 -10
-5 -10 -11z"/>
<path d="M8700 3699 c0 -24 23 -21 28 4 2 10 -3 17 -12 17 -10 0 -16 -9 -16
-21z"/>
<path d="M6520 1143 c0 -13 5 -23 10 -23 13 0 13 11 0 30 -8 12 -10 11 -10 -7z"/>
<path d="M6790 1104 c0 -3 6 -12 14 -20 16 -15 32 -2 21 16 -7 11 -35 14 -35
4z"/>
<path d="M7635 870 c4 -6 11 -8 16 -5 14 9 11 15 -7 15 -8 0 -12 -5 -9 -10z"/>
<path d="M9448 633 c-19 -5 -24 -18 -9 -27 4 -3 16 3 26 14 18 20 16 22 -17
13z"/>
<path d="M9430 550 c0 -5 5 -10 10 -10 6 0 10 5 10 10 0 6 -4 10 -10 10 -5 0
-10 -4 -10 -10z"/>
<path d="M8772 499 c2 -6 8 -10 13 -10 5 0 11 4 13 10 2 6 -4 11 -13 11 -9 0
-15 -5 -13 -11z"/>
<path d="M8883 433 c-7 -2 -13 -8 -13 -13 0 -10 38 -1 46 11 6 10 -13 11 -33
2z"/>
</g>
</svg>
